<?xml version="1.0" standalone="yes"?>
<!DOCTYPE svg PUBLIC "-//W3C//DTD SVG 20010904//EN" "http://www.w3.org/TR/2001/REC-SVG-20010904/DTD/svg10.dtd">
<svg xmlns="http://www.w3.org/2000/svg" version="1.0" width="1271.000000pt" height="1280.000000pt" viewBox="0 0 1271.000000 1280.000000" preserveAspectRatio="xMidYMid meet" style="zoom: 0.5;"><metadata>Created by potrace 1.15, written by Peter Selinger 2001-2017</metadata><g transform="translate(0.000000,1280.000000) scale(0.100000,-0.100000)" fill="#0014a8" stroke="none"><path d="M4225,10628 c-12,-38 -24,-521 -15,-600 c13,-110 49,-227 93,-298 c19,-30 53,-86 77,-125 c24,-38 56,-86 72,-105 c119,-140 345,-251 598,-294 c238,-40 462,-40 1290,-1 c370,18 2038,124 2193,139 c38,4 46,2 40,-8 c-11,-19 -264,-286 -708,-746 c-2006,-2080 -3548,-3823 -4622,-5220 l-149,-195 l-32,-150 c-53,-254 -65,-327 -65,-410 c-1,-97 12,-145 55,-209 c18,-27 42,-66 53,-86 c55,-102 119,-149 240,-180 c98,-25 174,-25 412,-1 c745,77 827,82 1471,88 c1755,16 2800,-141 3637,-547 c77,-38 177,-89 221,-114 c63,-35 84,-43 92,-33 c16,20 35,321 28,452 c-14,252 -57,416 -158,600 c-82,150 -139,228 -206,281 c-233,184 -875,335 -1737,409 c-577,48 -1631,69 -2312,45 c-195,-7 -356,-10 -359,-7 c-18,18 929,1138 1791,2117 c1310,1489 2168,2431 2891,3175 c479,493 550,604 638,997 c36,161 86,460 79,471 c-3,5 -26,7 -50,3 c-43,-6 -45,-5 -40,17 c12,48 19,116 13,125 c-3,6 -46,2 -108,-9 c-367,-68 -859,-118 -1453,-150 c-318,-16 -1708,-23 -2005,-10 c-973,45 -1561,207 -1880,518 c-41,40 -76,73 -78,73 c-1,0 -4,-6 -7,-12 "></path></g></svg>